<svg xmlns="http://www.w3.org/2000/svg"  viewBox="0 0 50 50" width="50px" height="50px" baseProfile="basic"><circle cx="14" cy="14" r="3" fill="#00a4ff"/><path fill="#16d6fa" d="M37.718,47H12.282C7.164,47,3,42.836,3,37.718V12.282C3,7.164,7.164,3,12.282,3h25.436	C42.836,3,47,7.164,47,12.282v25.436C47,42.836,42.836,47,37.718,47z M12.282,7C9.369,7,7,9.369,7,12.282v25.436	C7,40.631,9.369,43,12.282,43h25.436C40.631,43,43,40.631,43,37.718V12.282C43,9.369,40.631,7,37.718,7H12.282z"/><rect width="4" height="19" x="12" y="19" fill="#16d6fa"/><rect width="4" height="19" x="21" y="19" fill="#16d6fa"/><path fill="#16d6fa" d="M38,38h-4V27.5c0-1.056-0.252-4.5-3.5-4.5c-2.468,0-5.5,3.032-5.5,5.5V38h-4v-9.5	c0-4.706,4.794-9.5,9.5-9.5c4.416,0,7.5,3.495,7.5,8.5V38z"/></svg>